Results
version=1
nRows=4
nColumns=205
inDegrees=yes
endheader
time	/jointset/ground_pelvis/pelvis_tilt/value	/jointset/ground_pelvis/pelvis_tilt/speed	/jointset/ground_pelvis/pelvis_list/value	/jointset/ground_pelvis/pelvis_list/speed	/jointset/ground_pelvis/pelvis_rotation/value	/jointset/ground_pelvis/pelvis_rotation/speed	/jointset/ground_pelvis/pelvis_tx/value	/jointset/ground_pelvis/pelvis_tx/speed	/jointset/ground_pelvis/pelvis_ty/value	/jointset/ground_pelvis/pelvis_ty/speed	/jointset/ground_pelvis/pelvis_tz/value	/jointset/ground_pelvis/pelvis_tz/speed	/jointset/hip_r/hip_flexion_r/value	/jointset/hip_r/hip_flexion_r/speed	/jointset/hip_r/hip_adduction_r/value	/jointset/hip_r/hip_adduction_r/speed	/jointset/hip_r/hip_rotation_r/value	/jointset/hip_r/hip_rotation_r/speed	/jointset/walker_knee_r/knee_angle_r/value	/jointset/walker_knee_r/knee_angle_r/speed	/jointset/patellofemoral_r/knee_angle_r_beta/value	/jointset/patellofemoral_r/knee_angle_r_beta/speed	/jointset/ankle_r/ankle_angle_r/value	/jointset/ankle_r/ankle_angle_r/speed	/jointset/subtalar_r/subtalar_angle_r/value	/jointset/subtalar_r/subtalar_angle_r/speed	/jointset/mtp_r/mtp_angle_r/value	/jointset/mtp_r/mtp_angle_r/speed	/jointset/hip_l/hip_flexion_l/value	/jointset/hip_l/hip_flexion_l/speed	/jointset/hip_l/hip_adduction_l/value	/jointset/hip_l/hip_adduction_l/speed	/jointset/hip_l/hip_rotation_l/value	/jointset/hip_l/hip_rotation_l/speed	/jointset/walker_knee_l/knee_angle_l/value	/jointset/walker_knee_l/knee_angle_l/speed	/jointset/patellofemoral_l/knee_angle_l_beta/value	/jointset/patellofemoral_l/knee_angle_l_beta/speed	/jointset/ankle_l/ankle_angle_l/value	/jointset/ankle_l/ankle_angle_l/speed	/jointset/subtalar_l/subtalar_angle_l/value	/jointset/subtalar_l/subtalar_angle_l/speed	/jointset/mtp_l/mtp_angle_l/value	/jointset/mtp_l/mtp_angle_l/speed	/jointset/back/lumbar_extension/value	/jointset/back/lumbar_extension/speed	/jointset/back/lumbar_bending/value	/jointset/back/lumbar_bending/speed	/jointset/back/lumbar_rotation/value	/jointset/back/lumbar_rotation/speed	/jointset/acromial_r/arm_flex_r/value	/jointset/acromial_r/arm_flex_r/speed	/jointset/acromial_r/arm_add_r/value	/jointset/acromial_r/arm_add_r/speed	/jointset/acromial_r/arm_rot_r/value	/jointset/acromial_r/arm_rot_r/speed	/jointset/elbow_r/elbow_flex_r/value	/jointset/elbow_r/elbow_flex_r/speed	/jointset/radioulnar_r/pro_sup_r/value	/jointset/radioulnar_r/pro_sup_r/speed	/jointset/radius_hand_r/wrist_flex_r/value	/jointset/radius_hand_r/wrist_flex_r/speed	/jointset/radius_hand_r/wrist_dev_r/value	/jointset/radius_hand_r/wrist_dev_r/speed	/jointset/acromial_l/arm_flex_l/value	/jointset/acromial_l/arm_flex_l/speed	/jointset/acromial_l/arm_add_l/value	/jointset/acromial_l/arm_add_l/speed	/jointset/acromial_l/arm_rot_l/value	/jointset/acromial_l/arm_rot_l/speed	/jointset/elbow_l/elbow_flex_l/value	/jointset/elbow_l/elbow_flex_l/speed	/jointset/radioulnar_l/pro_sup_l/value	/jointset/radioulnar_l/pro_sup_l/speed	/jointset/radius_hand_l/wrist_flex_l/value	/jointset/radius_hand_l/wrist_flex_l/speed	/jointset/radius_hand_l/wrist_dev_l/value	/jointset/radius_hand_l/wrist_dev_l/speed	/forceset/addbrev_r/activation	/forceset/addlong_r/activation	/forceset/addlong_r/fiber_length	/forceset/addmagDist_r/activation	/forceset/addmagIsch_r/activation	/forceset/addmagIsch_r/fiber_length	/forceset/addmagMid_r/activation	/forceset/addmagProx_r/activation	/forceset/bflh_r/activation	/forceset/bflh_r/fiber_length	/forceset/bfsh_r/activation	/forceset/edl_r/activation	/forceset/edl_r/fiber_length	/forceset/ehl_r/activation	/forceset/ehl_r/fiber_length	/forceset/fdl_r/activation	/forceset/fdl_r/fiber_length	/forceset/fhl_r/activation	/forceset/fhl_r/fiber_length	/forceset/gaslat_r/activation	/forceset/gaslat_r/fiber_length	/forceset/gasmed_r/activation	/forceset/gasmed_r/fiber_length	/forceset/glmax1_r/activation	/forceset/glmax2_r/activation	/forceset/glmax3_r/activation	/forceset/glmed1_r/activation	/forceset/glmed2_r/activation	/forceset/glmed3_r/activation	/forceset/glmin1_r/activation	/forceset/glmin2_r/activation	/forceset/glmin3_r/activation	/forceset/glmin3_r/fiber_length	/forceset/grac_r/activation	/forceset/iliacus_r/activation	/forceset/perbrev_r/activation	/forceset/perbrev_r/fiber_length	/forceset/perlong_r/activation	/forceset/perlong_r/fiber_length	/forceset/piri_r/activation	/forceset/piri_r/fiber_length	/forceset/psoas_r/activation	/forceset/recfem_r/activation	/forceset/recfem_r/fiber_length	/forceset/sart_r/activation	/forceset/semimem_r/activation	/forceset/semimem_r/fiber_length	/forceset/semiten_r/activation	/forceset/semiten_r/fiber_length	/forceset/soleus_r/activation	/forceset/soleus_r/fiber_length	/forceset/tfl_r/activation	/forceset/tfl_r/fiber_length	/forceset/tibant_r/activation	/forceset/tibant_r/fiber_length	/forceset/tibpost_r/activation	/forceset/tibpost_r/fiber_length	/forceset/vasint_r/activation	/forceset/vasint_r/fiber_length	/forceset/vaslat_r/activation	/forceset/vaslat_r/fiber_length	/forceset/vasmed_r/activation	/forceset/vasmed_r/fiber_length	/forceset/addbrev_l/activation	/forceset/addlong_l/activation	/forceset/addlong_l/fiber_length	/forceset/addmagDist_l/activation	/forceset/addmagIsch_l/activation	/forceset/addmagIsch_l/fiber_length	/forceset/addmagMid_l/activation	/forceset/addmagProx_l/activation	/forceset/bflh_l/activation	/forceset/bflh_l/fiber_length	/forceset/bfsh_l/activation	/forceset/edl_l/activation	/forceset/edl_l/fiber_length	/forceset/ehl_l/activation	/forceset/ehl_l/fiber_length	/forceset/fdl_l/activation	/forceset/fdl_l/fiber_length	/forceset/fhl_l/activation	/forceset/fhl_l/fiber_length	/forceset/gaslat_l/activation	/forceset/gaslat_l/fiber_length	/forceset/gasmed_l/activation	/forceset/gasmed_l/fiber_length	/forceset/glmax1_l/activation	/forceset/glmax2_l/activation	/forceset/glmax3_l/activation	/forceset/glmed1_l/activation	/forceset/glmed2_l/activation	/forceset/glmed3_l/activation	/forceset/glmin1_l/activation	/forceset/glmin2_l/activation	/forceset/glmin3_l/activation	/forceset/glmin3_l/fiber_length	/forceset/grac_l/activation	/forceset/iliacus_l/activation	/forceset/perbrev_l/activation	/forceset/perbrev_l/fiber_length	/forceset/perlong_l/activation	/forceset/perlong_l/fiber_length	/forceset/piri_l/activation	/forceset/piri_l/fiber_length	/forceset/psoas_l/activation	/forceset/recfem_l/activation	/forceset/recfem_l/fiber_length	/forceset/sart_l/activation	/forceset/semimem_l/activation	/forceset/semimem_l/fiber_length	/forceset/semiten_l/activation	/forceset/semiten_l/fiber_length	/forceset/soleus_l/activation	/forceset/soleus_l/fiber_length	/forceset/tfl_l/activation	/forceset/tfl_l/fiber_length	/forceset/tibant_l/activation	/forceset/tibant_l/fiber_length	/forceset/tibpost_l/activation	/forceset/tibpost_l/fiber_length	/forceset/vasint_l/activation	/forceset/vasint_l/fiber_length	/forceset/vaslat_l/activation	/forceset/vaslat_l/fiber_length	/forceset/vasmed_l/activation	/forceset/vasmed_l/fiber_length
      0.04649402	      5.44101615	    185.68987728	     -0.76020865	    -24.80837395	      1.88400912	     89.02496884	      0.00094617	      0.02738689	      0.93922090	     -0.12696147	     -0.00292962	     -0.13357002	     26.55314877	   -340.23097944	     -0.48729499	    -17.89850935	     -3.57087245	   -151.76949431	     38.43867605	   -289.05300993	      0.67088146	     -5.04492674	    -10.93863471	   -218.86368788	     -0.51146773	     79.97206252	    -18.26069260	   -423.65509532	     -6.90260759	   -219.92706787	     -0.91584023	    -39.98728229	      0.43619907	     23.43503884	     -3.23933151	    -66.48459504	     -0.05653700	     -1.16037509	    -19.47181213	   -256.40868941	     -1.21168772	    146.19369137	    -32.53249287	   -627.81691426	     -6.15291168	   -206.95233198	      1.03638892	     42.13075105	     -1.77629914	    -82.07021059	      1.10542106	     35.78195940	     -0.08077647	     -0.98259352	     -0.01423214	     -0.05790763	     -0.48598430	    -17.26372244	      0.06434023	      1.80235102	      0.16423730	      7.67845853	      0.28771174	      8.85703312	      1.12017379	     36.05201813	      0.14171837	      3.01423512	      0.00822393	      0.27743516	     -0.49340495	    -17.42731442	      0.04213785	      1.41314564	      0.14901743	      7.44405683	      0.09765866	      5.41037944	      0.00401389	      0.00401389	      0.09296489	      0.00401389	      0.00401389	      0.14851042	      0.00401389	      0.00401389	      0.00401389	      0.09409555	      0.00401389	      0.00401389	      0.07335438	      0.00401389	      0.08253564	      0.00401389	      0.04584918	      0.00401389	      0.05078730	      0.00401389	      0.05114448	      0.00401389	      0.04274843	      0.00401389	      0.00401389	      0.00401389	      0.00401389	      0.00401389	      0.00401389	      0.00401389	      0.00401389	      0.00401389	      0.04272480	      0.00401389	      0.00401389	      0.00401389	      0.04719407	      0.00401389	      0.05239713	      0.00401389	      0.02740631	      0.00401389	      0.00401389	      0.07633831	      0.00401389	      0.00401389	      0.06290858	      0.00401389	      0.20729513	      0.00401389	      0.04187750	      0.00401389	      0.08989803	      0.00401389	      0.07368010	      0.00401389	      0.03790194	      0.00401389	      0.10836430	      0.00401389	      0.10663654	      0.00401389	      0.10572083	      0.00401389	      0.00401389	      0.11908425	      0.00401389	      0.00401389	      0.12160406	      0.00401389	      0.00401389	      0.00401389	      0.08641350	      0.00401389	      0.00401389	      0.07617303	      0.00401389	      0.08555466	      0.00401389	      0.04595855	      0.00401389	      0.05015930	      0.00401389	      0.05859989	      0.00401389	      0.04820734	      0.00401389	      0.00401389	      0.00401389	      0.00401389	      0.00401389	      0.00401389	      0.00401389	      0.00401389	      0.00401389	      0.03614359	      0.00401389	      0.00401389	      0.00401389	      0.04594384	      0.00401389	      0.05079534	      0.00401389	      0.02216794	      0.00401389	      0.00401389	      0.06551769	      0.00401389	      0.00401389	      0.06293485	      0.00401389	      0.20825142	      0.00401389	      0.04089455	      0.00401389	      0.09809390	      0.00401389	      0.07916847	      0.00401389	      0.03667858	      0.00401389	      0.07719123	      0.00401389	      0.07659242	      0.00401389	      0.07825504
      0.04700390	      5.53583518	    186.23210053	     -0.77282311	    -24.66871060	      1.92963438	     89.93865776	      0.00096009	      0.02724367	      0.93915510	     -0.13114862	     -0.00299805	     -0.13485381	     26.37926310	   -341.82694651	     -0.49642031	    -17.89624104	     -3.64861102	   -153.15818075	     38.29075523	   -291.16226172	      0.66829975	     -5.08174012	    -11.05013672	   -218.50998832	     -0.47018162	     81.97046236	    -18.47720284	   -425.62560803	     -7.01480293	   -220.15145806	     -0.93629629	    -40.24838442	      0.44820909	     23.67407350	     -3.27299560	    -65.55927284	     -0.05712455	     -1.14422517	    -19.60057305	   -248.65556331	     -1.13602026	    150.60104597	    -32.85159063	   -623.86149401	     -6.25855864	   -207.44135242	      1.05793058	     42.36350443	     -1.81834557	    -82.85579626	      1.12367472	     35.81679217	     -0.08125638	     -0.89927650	     -0.01425771	     -0.04236193	     -0.49480217	    -17.32378746	      0.06525749	      1.79550362	      0.16817205	      7.75528377	      0.29221918	      8.82265051	      1.13856290	     36.07800499	      0.14323523	      2.93502291	      0.00836487	      0.27533944	     -0.50230601	    -17.48650362	      0.04286115	      1.42400786	      0.15283659	      7.53643302	      0.10044373	      5.51433078	      0.00394825	      0.00394825	      0.09310251	      0.00394825	      0.00394825	      0.14835439	      0.00394825	      0.00394825	      0.00394825	      0.09399959	      0.00394825	      0.00394825	      0.07340143	      0.00394825	      0.08257291	      0.00394825	      0.04584300	      0.00394825	      0.05077064	      0.00394825	      0.05111574	      0.00394825	      0.04272136	      0.00394825	      0.00394825	      0.00394825	      0.00394825	      0.00394825	      0.00394825	      0.00394825	      0.00394825	      0.00394825	      0.04269240	      0.00394825	      0.00394825	      0.00394825	      0.04719679	      0.00394825	      0.05239286	      0.00394825	      0.02735279	      0.00394825	      0.00394825	      0.07636153	      0.00394825	      0.00394825	      0.06286632	      0.00394825	      0.20724603	      0.00394825	      0.04180703	      0.00394825	      0.09002066	      0.00394825	      0.07374660	      0.00394825	      0.03787140	      0.00394825	      0.10826766	      0.00394825	      0.10654113	      0.00394825	      0.10563429	      0.00394825	      0.00394825	      0.11920808	      0.00394825	      0.00394825	      0.12155402	      0.00394825	      0.00394825	      0.00394825	      0.08635624	      0.00394825	      0.00394825	      0.07622264	      0.00394825	      0.08558201	      0.00394825	      0.04594300	      0.00394825	      0.05013277	      0.00394825	      0.05850555	      0.00394825	      0.04812578	      0.00394825	      0.00394825	      0.00394825	      0.00394825	      0.00394825	      0.00394825	      0.00394825	      0.00394825	      0.00394825	      0.03611132	      0.00394825	      0.00394825	      0.00394825	      0.04595366	      0.00394825	      0.05079133	      0.00394825	      0.02214906	      0.00394825	      0.00394825	      0.06554235	      0.00394825	      0.00394825	      0.06288593	      0.00394825	      0.20820269	      0.00394825	      0.04082453	      0.00394825	      0.09810670	      0.00394825	      0.07923556	      0.00394825	      0.03662908	      0.00394825	      0.07716349	      0.00394825	      0.07656943	      0.00394825	      0.07823219
      0.04751378	      5.63092404	    186.75287510	     -0.78536375	    -24.52165675	      1.97572216	     90.83899855	      0.00097395	      0.02709660	      0.93908715	     -0.13537729	     -0.00306714	     -0.13611626	     26.20457489	   -343.38535936	     -0.50554224	    -17.88169835	     -3.72705356	   -154.53122284	     38.14176605	   -293.24628705	      0.66569940	     -5.11811323	    -11.16146752	   -218.19275752	     -0.42788195	     83.94652757	    -18.69474274	   -427.69364090	     -7.12710478	   -220.35198720	     -0.95688337	    -40.50494071	      0.46033922	     23.90476517	     -3.30618554	    -64.62906223	     -0.05770382	     -1.12798993	    -19.72537920	   -240.89815640	     -1.05811807	    154.96603028	    -33.16869249	   -619.98865738	     -6.36444717	   -207.90492709	      1.07958889	     42.59160280	     -1.86078940	    -83.62834778	      1.14194457	     35.84629205	     -0.08169337	     -0.81479209	     -0.01427531	     -0.02666080	     -0.50365001	    -17.38174828	      0.06617114	      1.78824446	      0.17214575	      7.83167377	      0.29670844	      8.78640589	      1.15696367	     36.09858902	      0.14471120	      2.85437977	      0.00850471	      0.27322389	     -0.51123661	    -17.54370082	      0.04358997	      1.43478332	      0.15670276	      7.62872842	      0.10328196	      5.61867914	      0.00388260	      0.00388260	      0.09324100	      0.00388260	      0.00388260	      0.14819783	      0.00388260	      0.00388260	      0.00388260	      0.09390340	      0.00388260	      0.00388260	      0.07344844	      0.00388260	      0.08260981	      0.00388260	      0.04583654	      0.00388260	      0.05075377	      0.00388260	      0.05108755	      0.00388260	      0.04269488	      0.00388260	      0.00388260	      0.00388260	      0.00388260	      0.00388260	      0.00388260	      0.00388260	      0.00388260	      0.00388260	      0.04265953	      0.00388260	      0.00388260	      0.00388260	      0.04719994	      0.00388260	      0.05238897	      0.00388260	      0.02729890	      0.00388260	      0.00388260	      0.07638433	      0.00388260	      0.00388260	      0.06282415	      0.00388260	      0.20719710	      0.00388260	      0.04173658	      0.00388260	      0.09014327	      0.00388260	      0.07381274	      0.00388260	      0.03784046	      0.00388260	      0.10817019	      0.00388260	      0.10644487	      0.00388260	      0.10554700	      0.00388260	      0.00388260	      0.11930036	      0.00388260	      0.00388260	      0.12150423	      0.00388260	      0.00388260	      0.00388260	      0.08629889	      0.00388260	      0.00388260	      0.07627083	      0.00388260	      0.08560732	      0.00388260	      0.04592700	      0.00388260	      0.05010632	      0.00388260	      0.05841122	      0.00388260	      0.04804425	      0.00388260	      0.00388260	      0.00388260	      0.00388260	      0.00388260	      0.00388260	      0.00388260	      0.00388260	      0.00388260	      0.03607902	      0.00388260	      0.00388260	      0.00388260	      0.04596526	      0.00388260	      0.05078863	      0.00388260	      0.02213024	      0.00388260	      0.00388260	      0.06556729	      0.00388260	      0.00388260	      0.06283685	      0.00388260	      0.20815387	      0.00388260	      0.04075456	      0.00388260	      0.09811940	      0.00388260	      0.07929975	      0.00388260	      0.03657944	      0.00388260	      0.07713611	      0.00388260	      0.07654675	      0.00388260	      0.07820965
      0.04802366	      5.72627040	    187.23747677	     -0.79782597	    -24.35820728	      2.02226563	     91.72623178	      0.00098772	      0.02694114	      0.93901703	     -0.13966974	     -0.00313686	     -0.13736048	     26.02910524	   -344.88557594	     -0.51465566	    -17.86649046	     -3.80619184	   -155.88669930	     37.99172230	   -295.29597286	      0.66308064	     -5.15388699	    -11.27264509	   -217.90778604	     -0.38457963	     85.90479759	    -18.91336141	   -429.85661104	     -7.23949888	   -220.50610534	     -0.97759797	    -40.74474582	      0.47258555	     24.13115343	     -3.33889766	    -63.68074363	     -0.05827476	     -1.11143865	    -19.84622839	   -233.13287677	     -0.97800467	    159.26792853	    -33.48383996	   -616.19431444	     -6.47056280	   -208.32707689	      1.10136044	     42.80430449	     -1.90362412	    -84.38969829	      1.16022768	     35.86798758	     -0.08208673	     -0.72761475	     -0.01428485	     -0.01070750	     -0.51252658	    -17.43600108	      0.06708093	      1.78027388	      0.17615806	      7.90627642	      0.30117837	      8.74614138	      1.17537311	     36.11113344	      0.14614539	      2.77061911	      0.00864344	      0.27087148	     -0.52019559	    -17.59729514	      0.04432428	      1.44552700	      0.16061578	      7.71990450	      0.10617361	      5.72406421	      0.00381695	      0.00381695	      0.09338033	      0.00381695	      0.00381695	      0.14804076	      0.00381695	      0.00381695	      0.00381695	      0.09380702	      0.00381695	      0.00381695	      0.07349542	      0.00381695	      0.08264634	      0.00381695	      0.04582979	      0.00381695	      0.05073671	      0.00381695	      0.05105989	      0.00381695	      0.04266897	      0.00381695	      0.00381695	      0.00381695	      0.00381695	      0.00381695	      0.00381695	      0.00381695	      0.00381695	      0.00381695	      0.04262618	      0.00381695	      0.00381695	      0.00381695	      0.04720351	      0.00381695	      0.05238547	      0.00381695	      0.02724467	      0.00381695	      0.00381695	      0.07640669	      0.00381695	      0.00381695	      0.06278209	      0.00381695	      0.20714835	      0.00381695	      0.04166615	      0.00381695	      0.09026582	      0.00381695	      0.07387855	      0.00381695	      0.03780911	      0.00381695	      0.10807192	      0.00381695	      0.10634779	      0.00381695	      0.10545897	      0.00381695	      0.00381695	      0.11942520	      0.00381695	      0.00381695	      0.12145468	      0.00381695	      0.00381695	      0.00381695	      0.08624148	      0.00381695	      0.00381695	      0.07631759	      0.00381695	      0.08563059	      0.00381695	      0.04591055	      0.00381695	      0.05007998	      0.00381695	      0.05831688	      0.00381695	      0.04796277	      0.00381695	      0.00381695	      0.00381695	      0.00381695	      0.00381695	      0.00381695	      0.00381695	      0.00381695	      0.00381695	      0.03604669	      0.00381695	      0.00381695	      0.00381695	      0.04597858	      0.00381695	      0.05078726	      0.00381695	      0.02211148	      0.00381695	      0.00381695	      0.06559251	      0.00381695	      0.00381695	      0.06278764	      0.00381695	      0.20810497	      0.00381695	      0.04068463	      0.00381695	      0.09813201	      0.00381695	      0.07936105	      0.00381695	      0.03652965	      0.00381695	      0.07710910	      0.00381695	      0.07652438	      0.00381695	      0.07818742
